<svg width="89" height="84" viewBox="0 0 89 84" fill="none" xmlns="http://www.w3.org/2000/svg">
<path fill-rule="evenodd" clip-rule="evenodd" d="M64.5787 9.38345C68.8962 9.63112 72.3279 12.0753 75.7597 14.8197C87.0146 23.8324 90.7788 37.816 83.0665 51.5573C71.0736 72.8668 43.1392 86.8134 21.4782 80.3769C16.681 78.9584 10.1864 77.7082 5.42615 70.7809C0.997998 64.34 1.1825 56.683 3.21207 49.5941C5.27854 42.3258 9.26387 35.6364 12.4374 31.3364C26.3122 12.5755 54.0989 -4.47551 79.2286 4.51367C79.7452 4.68687 80.2619 4.38901 80.4095 3.84842C80.5571 3.30784 80.2986 2.72817 79.8189 2.55497C53.9511 -6.69627 25.2789 10.7209 10.9981 30.0285C7.04966 35.3903 1.88377 44.3408 0.407723 53.6015C-0.58861 59.931 0.112369 66.4011 3.9501 72.0296C9.00556 79.4085 15.9062 80.8538 20.9985 82.3644C43.3607 89.0123 72.2541 74.658 84.616 52.6496C92.9188 37.8802 88.9336 22.8359 76.83 13.1486C73.1399 10.1709 69.3758 7.59755 64.6894 7.32931C64.1727 7.3001 63.7301 7.7366 63.7301 8.30352C63.6932 8.87043 64.099 9.35424 64.5787 9.38345Z" fill="#FCC400"/>
<path d="M60.88 44.0384C62.3733 44.9102 62.3733 47.0898 60.88 47.9616L37.36 61.6932C35.8667 62.565 34 61.4752 34 59.7315L34 32.2685C34 30.5248 35.8667 29.435 37.36 30.3068L60.88 44.0384Z" fill="white"/>
</svg>
